<svg version="1.0" xmlns="http://www.w3.org/2000/svg"
 width="716.000000pt" height="830.000000pt" viewBox="0 0 716.000000 830.000000"
 preserveAspectRatio="xMidYMid meet">

<g transform="translate(0.000000,830.000000) scale(0.100000,-0.100000)"
fill="#FFFFFF" stroke="none">
<path d="M4308 6244 c-38 -8 -139 -45 -225 -81 l-158 -67 -210 -1 c-192 0
-215 -2 -273 -23 -61 -22 -575 -263 -783 -367 -135 -68 -193 -128 -237 -245
-8 -21 -51 -44 -243 -129 -129 -57 -361 -162 -517 -234 -334 -154 -347 -164
-386 -287 -41 -129 -48 -217 -53 -703 l-5 -458 39 -37 c81 -76 236 -142 334
-142 l47 0 11 -44 c6 -25 11 -47 11 -50 0 -3 -35 -6 -77 -6 -101 -1 -323 -17
-331 -24 -3 -3 -3 -8 -1 -10 12 -12 1048 -177 1864 -297 187 -27 439 -65 560
-84 587 -92 761 -112 905 -101 130 10 639 54 880 76 118 11 350 31 515 45 367
32 557 53 568 64 18 18 -130 36 -653 76 -190 15 -353 30 -362 33 -15 6 -10 15
31 60 47 50 51 52 103 52 97 0 662 41 700 51 81 21 125 90 150 234 17 106 17
769 0 990 -26 323 -63 608 -113 859 -16 82 -28 150 -26 152 8 8 97 -20 130
-42 34 -22 50 -54 27 -54 -5 0 -17 -11 -25 -24 -14 -21 -14 -39 5 -196 11 -95
25 -181 31 -191 14 -27 42 -39 94 -39 35 0 51 6 70 25 22 21 25 33 25 95 0
189 -44 376 -107 450 -38 46 -100 77 -199 103 l-89 23 -36 103 c-73 206 -161
253 -654 346 -522 98 -1130 143 -1337 99z m667 -94 c204 -22 892 -137 881
-147 -2 -2 -102 10 -222 26 -372 52 -823 86 -1035 80 -130 -5 -168 -19 -201
-79 -16 -29 -19 -48 -14 -117 6 -90 -1 -103 -58 -103 -20 0 -27 7 -36 38 -21
62 -70 102 -127 102 -31 0 -58 -11 -763 -300 -730 -298 -1056 -432 -1535 -626
-236 -96 -449 -186 -473 -200 -37 -22 -42 -23 -34 -7 12 22 57 64 92 85 57 34
1158 525 1965 876 772 335 845 365 935 382 57 11 492 4 625 -10z m-1320 -169
c-77 -31 -657 -287 -942 -416 -101 -45 -183 -77 -183 -71 0 7 19 30 43 53 34
34 115 76 417 218 495 234 517 242 670 243 l65 1 -70 -28z m1320 9 c455 -33
1007 -103 1042 -131 21 -18 43 -192 25 -203 -4 -3 -71 4 -148 14 -212 29 -626
69 -834 81 -270 15 -261 13 -283 78 -26 77 -32 138 -17 156 15 18 31 18 215 5z
m922 4 c-3 -3 -12 -4 -19 -1 -8 3 -5 6 6 6 11 1 17 -2 13 -5z m-1490 -366 c27
-26 28 -36 6 -82 -15 -32 -15 -52 -5 -208 6 -95 18 -196 26 -223 8 -28 21
-166 30 -308 9 -142 21 -281 27 -310 19 -89 58 -157 131 -229 89 -88 345 -280
430 -322 105 -53 173 -61 513 -60 333 1 495 16 569 55 76 39 186 146 273 264
l22 30 1 -46 c0 -53 6 -44 -181 -290 -64 -85 -125 -162 -136 -172 -24 -21
-114 -33 -363 -47 -208 -11 -525 -13 -585 -3 -31 5 -50 17 -85 57 -214 238
-433 399 -565 414 l-47 5 7 -34 c13 -67 36 -127 70 -184 19 -32 35 -59 35 -61
0 -2 -45 -4 -100 -4 l-100 0 0 423 c0 410 -20 1011 -40 1211 -15 145 -15 146
17 146 15 0 37 -10 50 -22z m563 -33 c323 -18 491 -32 501 -42 9 -10 63 -329
83 -493 29 -230 56 -601 56 -751 l0 -62 -187 7 c-104 4 -192 11 -196 15 -5 5
45 113 111 240 l119 231 16 -135 c26 -228 44 -202 46 68 1 227 -51 605 -82
594 -7 -2 -11 -17 -10 -33 1 -16 7 -88 13 -159 l11 -130 -54 -90 c-29 -50
-104 -180 -166 -290 -63 -110 -125 -217 -138 -239 l-25 -39 -62 6 c-69 7 -209
48 -276 82 -55 28 -114 88 -134 135 -18 45 -33 160 -41 315 -3 66 -8 150 -11
188 l-6 67 37 0 c73 0 101 29 110 115 9 77 -11 311 -30 366 -8 23 -15 43 -15
45 0 6 38 5 330 -11z m848 -60 c227 -24 414 -54 438 -70 27 -17 27 -19 53
-160 39 -210 91 -659 91 -782 0 -83 -26 -141 -78 -175 -85 -54 -142 -63 -165
-25 -8 12 -58 99 -112 192 -120 207 -217 360 -255 400 -20 22 -29 44 -34 85
-7 62 -50 247 -60 257 -3 3 -9 4 -12 0 -7 -6 63 -723 75 -772 16 -67 26 -19
23 118 l-3 142 24 -35 c28 -41 160 -276 206 -369 18 -35 29 -67 24 -72 -4 -4
-83 -11 -174 -15 l-166 -7 -7 149 c-19 401 -54 751 -102 1011 -13 73 -24 135
-24 138 0 9 109 5 258 -10z m-2122 -37 c10 -17 5 -227 -6 -248 -5 -9 -48 -28
-97 -44 -141 -44 -525 -156 -534 -156 -5 0 -9 42 -9 94 0 75 3 96 16 107 25
21 576 257 601 258 12 1 25 -4 29 -11z m568 -140 c19 -147 46 -1334 30 -1327
-5 3 -48 24 -97 49 l-87 45 2 620 3 620 60 17 c84 23 83 23 89 -24z m-234
-599 c0 -332 -4 -579 -9 -577 -5 2 -41 37 -80 79 l-71 77 0 455 c0 250 3 468
6 485 6 29 12 32 68 46 33 8 67 15 74 15 9 1 12 -121 12 -580z m-1075 263 c-2
-3 -107 -35 -232 -72 -126 -37 -238 -70 -250 -74 -22 -7 -23 -5 -23 47 0 35 5
59 14 66 8 7 122 59 253 116 l238 103 3 -90 c1 -50 0 -93 -3 -96z m-577 -124
l-3 -51 -205 -58 c-113 -32 -209 -59 -213 -59 -5 0 -7 10 -5 21 2 18 41 38
203 109 110 48 206 88 213 89 10 1 12 -13 10 -51z m3026 -171 c-63 -122 -179
-329 -220 -394 -37 -58 -65 -73 -38 -20 41 80 230 428 263 482 55 93 52 41 -5
-68z m494 -54 c115 -195 206 -363 199 -369 -9 -10 -307 506 -307 532 0 15 19
-14 108 -163z m-4008 52 c0 -10 -41 -27 -131 -56 -72 -22 -132 -39 -134 -37
-4 3 243 107 258 107 4 1 7 -6 7 -14z m1651 -245 c76 -23 173 -79 212 -120
l27 -30 0 -245 0 -245 -60 0 -60 0 -29 59 c-59 116 -127 167 -209 158 -65 -7
-110 -48 -157 -144 l-40 -80 -385 -7 c-551 -9 -682 -15 -678 -33 3 -12 86 -14
527 -13 l523 0 -6 -32 c-3 -18 -9 -111 -12 -205 -7 -167 -8 -173 -28 -173 -12
0 -172 13 -356 29 -184 17 -407 35 -495 41 -88 7 -171 17 -185 23 -20 10 -31
31 -58 117 -155 492 -176 543 -244 594 -34 24 -84 25 -228 1 -98 -16 -108 -16
-144 -1 -22 9 -37 18 -35 21 2 2 92 17 199 34 107 17 220 35 250 41 52 10 343
55 1100 170 179 27 336 51 350 53 68 11 162 6 221 -13z m1133 -456 c19 -19 20
-35 4 -56 -20 -24 -44 -28 -67 -12 -20 15 -29 62 -14 77 12 13 62 7 77 -9z
m1762 -28 c7 -30 -12 -68 -33 -64 -27 5 -38 33 -25 62 15 34 49 35 58 2z
m-1605 -97 c29 -29 23 -88 -12 -108 -39 -21 -77 -7 -95 35 -15 35 -7 68 20 86
21 15 66 8 87 -13z m1523 -15 c29 -28 10 -94 -26 -94 -20 0 -48 33 -48 56 0
25 24 54 45 54 7 0 21 -7 29 -16z m-1713 -100 c63 -67 237 -145 382 -170 180
-32 988 -6 1163 37 64 16 117 42 180 90 66 50 75 50 69 -3 -37 -335 -40 -340
-212 -346 l-102 -4 -10 38 c-18 65 -46 102 -83 109 -18 3 -80 1 -138 -5 -58
-6 -197 -13 -310 -16 -304 -7 -325 -10 -367 -47 -19 -17 -48 -55 -65 -84 -16
-29 -33 -55 -37 -58 -5 -2 -71 -9 -147 -15 -76 -6 -235 -20 -352 -31 -117 -11
-217 -17 -223 -14 -15 10 -12 532 4 538 6 3 60 6 118 6 101 1 107 0 130 -25z
m-861 -68 c0 -35 3 -138 7 -229 l6 -167 -36 0 c-44 0 -44 -3 -52 180 -3 74
-11 168 -18 208 -8 40 -12 73 -11 75 1 1 25 0 53 -1 l51 -4 0 -62z m-1990 52
c0 -7 -7 -31 -15 -53 -21 -60 -19 -181 5 -234 25 -53 25 -74 3 -69 -30 6 -54
63 -60 141 -7 92 2 153 27 195 20 32 40 42 40 20z m3192 -5 c42 -38 7 -93 -46
-73 -20 7 -26 17 -26 38 0 49 37 67 72 35z m1265 -9 c7 -19 -20 -49 -36 -40
-12 8 -15 39 -4 49 12 12 33 7 40 -9z m-2714 -34 c43 -34 68 -119 68 -229 -1
-160 -47 -261 -120 -261 -104 0 -159 258 -89 411 45 98 87 121 141 79z m562
-365 c66 -3 139 -8 163 -11 40 -5 42 -7 42 -40 0 -21 -5 -34 -12 -34 -7 0
-101 9 -208 20 -107 11 -201 20 -207 20 -8 0 -13 13 -13 31 l0 32 58 -6 c31
-4 111 -9 177 -12z m936 -156 l24 -20 -55 5 c-30 3 -82 6 -114 6 -71 0 -68 9
6 20 91 13 114 11 139 -11z"/>
<path d="M3109 4271 c-31 -25 -31 -81 -1 -118 47 -59 54 -72 47 -93 -8 -26
-29 -21 -33 8 -4 23 -26 30 -37 11 -10 -15 14 -66 34 -72 28 -7 61 11 72 39
13 35 -1 75 -41 121 -32 35 -37 73 -12 81 7 2 16 -5 19 -17 7 -29 33 -27 33 3
0 27 -24 56 -45 56 -7 0 -23 -8 -36 -19z"/>
<path d="M3007 4273 l-38 -4 3 -132 c3 -116 5 -132 21 -135 14 -3 17 5 17 52
0 51 2 56 25 62 14 3 25 12 25 20 0 8 -10 14 -25 14 -23 0 -25 4 -25 45 0 43
1 45 30 45 23 0 30 4 30 20 0 11 -6 19 -12 18 -7 -1 -30 -3 -51 -5z"/>
<path d="M2850 4125 l0 -135 50 0 c43 0 50 3 50 20 0 16 -7 20 -30 20 -28 0
-30 2 -30 40 0 36 3 40 25 40 18 0 25 5 25 20 0 15 -7 20 -25 20 -22 0 -25 4
-25 35 0 31 3 36 30 42 51 10 37 33 -20 33 l-50 0 0 -135z"/>
<path d="M2790 4137 c0 -63 -3 -116 -6 -120 -3 -3 -12 -3 -20 0 -11 4 -14 30
-14 114 0 90 -3 109 -15 109 -12 0 -15 -20 -15 -118 0 -78 4 -122 12 -130 16
-16 63 -15 76 1 28 35 25 257 -4 257 -11 0 -14 -23 -14 -113z"/>
<path d="M2579 4223 c-12 -3 -20 -33 -34 -129 -9 -69 -15 -128 -12 -131 10 -9
27 8 27 28 0 27 46 26 55 -1 8 -25 35 -27 34 -2 -2 54 -36 236 -44 237 -5 2
-17 1 -26 -2z m21 -135 c0 -29 -4 -38 -16 -38 -13 0 -15 7 -10 31 3 17 6 41 6
53 0 17 2 18 10 6 5 -8 10 -32 10 -52z"/>
<path d="M2471 4211 c-48 -6 -67 -29 -32 -38 20 -5 21 -12 21 -110 0 -94 2
-104 18 -101 15 3 17 15 13 111 -3 103 -2 107 18 107 14 0 21 6 21 20 0 11 -3
19 -7 18 -5 0 -28 -4 -52 -7z"/>
<path d="M2325 4186 c-24 -17 -33 -167 -13 -206 16 -30 59 -38 82 -15 23 23
23 196 0 219 -19 20 -44 20 -69 2z m53 -106 c2 -76 -7 -108 -27 -96 -7 4 -11
41 -11 92 0 76 2 85 18 82 14 -3 17 -16 20 -78z"/>
<path d="M2182 4063 c3 -103 5 -118 21 -121 14 -3 17 4 17 48 0 65 23 64 30
-1 3 -24 8 -43 13 -41 4 1 12 2 17 2 13 0 13 51 0 84 -6 16 -6 35 0 53 6 16 6
41 2 58 -8 27 -13 30 -55 33 l-48 3 3 -118z m68 53 c0 -21 -6 -36 -15 -40 -12
-4 -15 3 -15 34 0 29 4 40 15 40 10 0 15 -10 15 -34z"/>
<path d="M6317 3559 c-43 -34 -76 -64 -74 -66 11 -10 119 42 142 68 24 30 33
59 17 59 -5 0 -43 -28 -85 -61z"/>
<path d="M4656 3564 c11 -29 46 -64 85 -84 33 -18 160 -40 217 -40 l27 1 -30
16 c-29 16 -252 109 -288 120 -13 4 -16 1 -11 -13z"/>
<path d="M3420 3618 c-53 -87 -29 -288 34 -288 34 0 51 48 51 145 0 57 -5 93
-19 122 -24 55 -42 60 -66 21z"/>
</g>
</svg>
